<svg width="16" height="18" viewBox="0 0 16 18" fill="none" xmlns="http://www.w3.org/2000/svg">
<path d="M13.0909 0V2.45455H15.5455V4.09091H13.0909V6.54545H11.4545V4.09091H9V2.45455H11.4545V0H13.0909ZM6.54545 9.81818C7.44545 9.81818 8.18182 9.08182 8.18182 8.18182C8.18182 7.28182 7.44545 6.54545 6.54545 6.54545C5.64545 6.54545 4.90909 7.28182 4.90909 8.18182C4.90909 9.08182 5.64545 9.81818 6.54545 9.81818ZM8.18182 1.84091V4.90909H10.6364V7.36364H13.0255C13.0664 7.68273 13.0909 8.01 13.0909 8.34545C13.0909 11.0618 10.9064 14.2773 6.54545 18C2.18455 14.2773 0 11.0618 0 8.34545C0 4.27091 3.10909 1.63636 6.54545 1.63636C7.10182 1.63636 7.65 1.70182 8.18182 1.84091Z" fill="#6F767D"/>
</svg>
