<svg width="232" height="219" viewBox="0 0 232 219" fill="none" xmlns="http://www.w3.org/2000/svg">
<path opacity="0.5" d="M80.409 47.7533C58.932 59.5542 35.8857 68.062 23.4626 85.4075C11.2779 102.801 9.71647 129.032 19.3712 148.839C28.9779 168.884 49.7527 182.743 70.4398 190.878C90.8885 198.966 111.298 201.091 130.95 198.35C150.412 195.322 169.356 187.477 185.304 173.57C201.204 159.902 214.345 140.22 215.183 120.046C216.021 99.8711 204.841 79.0131 190.369 59.7248C176.087 40.723 158.799 23.1004 140.153 22.0746C121.555 20.8103 101.886 35.9524 80.409 47.7533Z" fill="url(#paint0_linear_197_21)"/>
<path d="M115.907 138.614C119.412 138.614 122.772 137.223 125.25 134.744C127.727 132.267 129.12 128.906 129.12 125.401C129.12 121.897 127.727 118.536 125.25 116.058C122.772 113.581 119.412 112.189 115.907 112.189C112.402 112.189 109.042 113.581 106.564 116.058C104.087 118.536 102.694 121.897 102.694 125.401C102.698 128.905 104.092 132.263 106.568 134.74C109.045 137.216 112.404 138.61 115.907 138.614ZM115.907 117.475C118.01 117.475 120.025 118.311 121.512 119.796C122.998 121.283 123.833 123.3 123.833 125.401C123.833 127.504 122.998 129.52 121.512 131.006C120.025 132.493 118.01 133.327 115.907 133.327C113.804 133.327 111.789 132.493 110.302 131.006C108.816 129.52 107.981 127.504 107.981 125.401C107.983 123.3 108.819 121.284 110.304 119.799C111.79 118.312 113.805 117.477 115.907 117.474L115.907 117.475Z" fill="#FF931D"/>
<path d="M126.129 139.581C125.294 139.568 124.501 139.956 123.999 140.625C122.097 143.184 119.098 144.693 115.908 144.695C112.72 144.695 109.719 143.188 107.816 140.628C107.314 139.958 106.523 139.569 105.685 139.581C98.9836 139.581 93.4402 144.97 93.4402 151.668V166.13C93.4402 167.59 94.717 168.656 96.1766 168.656H135.637C137.096 168.656 138.374 167.59 138.374 166.13V151.668C138.374 144.97 132.829 139.581 126.129 139.581ZM133.088 163.369H98.7264V151.668C98.7382 150.047 99.3199 148.481 100.369 147.244C101.418 146.007 102.868 145.177 104.466 144.9C107.018 147.726 110.527 149.504 114.315 149.891C118.103 150.278 121.9 149.247 124.97 146.997C125.828 146.38 126.622 145.676 127.338 144.9C128.937 145.176 130.39 146.004 131.44 147.242C132.49 148.479 133.073 150.046 133.087 151.668L133.088 163.369Z" fill="#FF931D"/>
<path d="M115.907 100.456C104.479 100.456 93.5192 104.996 85.4395 113.077C77.3599 121.157 72.8185 132.117 72.8185 143.544C72.8185 154.971 77.359 165.932 85.4395 174.012C93.5201 182.091 104.48 186.633 115.907 186.633C127.334 186.633 138.295 182.092 146.374 174.012C154.454 165.931 158.995 154.971 158.995 143.544C158.982 132.121 154.438 121.168 146.36 113.089C138.282 105.011 127.329 100.466 115.905 100.453L115.907 100.456ZM115.907 181.349C105.881 181.349 96.266 177.365 89.1768 170.276C82.0877 163.187 78.1039 153.572 78.1039 143.546C78.1039 133.519 82.0877 123.905 89.1768 116.815C96.266 109.726 105.881 105.743 115.907 105.743C125.933 105.743 135.548 109.726 142.637 116.815C149.726 123.905 153.71 133.519 153.71 143.546C153.698 153.568 149.712 163.177 142.625 170.264C135.538 177.351 125.93 181.337 115.907 181.349Z" fill="#215DA8"/>
<path d="M188.535 130.243L174.611 128.902C173.11 122.989 170.729 117.334 167.549 112.128L176.425 101.414V101.413C177.295 100.363 177.223 98.8238 176.26 97.8585L161.21 82.8054C160.245 81.8414 158.705 81.7706 157.655 82.6402L146.948 91.5056C141.751 88.2984 136.091 85.9135 130.166 84.4352L128.823 70.5584C128.689 69.212 127.546 68.1925 126.193 68.2126H105.626C104.272 68.1925 103.129 69.212 102.994 70.5584L101.653 84.4599C95.7282 85.9349 90.0675 88.3162 84.8709 91.5198L74.1638 82.6463C73.1136 81.7754 71.5738 81.8462 70.6084 82.8103L55.5553 97.8573H55.5565C54.5913 98.8214 54.5193 100.361 55.3889 101.412L64.2624 112.126C61.0813 117.332 58.6988 122.988 57.1966 128.902L43.2823 130.243C41.93 130.376 40.9011 131.515 40.9082 132.875V154.212V154.211C40.9011 155.571 41.9289 156.71 43.2811 156.843L57.1966 158.183C58.6727 164.108 61.055 169.768 64.26 174.966L55.3914 185.672C54.5206 186.722 54.5925 188.262 55.5566 189.227L70.606 204.278C71.5701 205.242 73.11 205.314 74.1603 204.443L84.8746 195.57C90.0806 198.752 95.7352 201.135 101.648 202.638L102.991 216.571L102.992 216.57C103.122 217.926 104.262 218.959 105.622 218.959H126.191C127.552 218.959 128.691 217.926 128.822 216.57L130.165 202.638C136.079 201.135 141.733 198.752 146.939 195.57L157.654 204.443C158.704 205.314 160.244 205.242 161.208 204.278L176.259 189.228C177.223 188.262 177.293 186.724 176.424 185.673L167.556 174.966C170.763 169.768 173.148 164.107 174.627 158.182L188.533 156.841V156.839C189.885 156.708 190.914 155.57 190.908 154.21V132.875C190.915 131.516 189.887 130.376 188.535 130.244L188.535 130.243ZM185.622 151.81L172.216 153.103C171.073 153.214 170.133 154.053 169.894 155.177C168.472 161.787 165.824 168.072 162.086 173.708C161.443 174.679 161.511 175.957 162.256 176.854L170.819 187.192L159.172 198.84L148.834 190.278H148.833C147.94 189.538 146.669 189.467 145.699 190.102C140.04 193.815 133.752 196.466 127.144 197.926C126.025 198.174 125.194 199.113 125.085 200.253L123.791 213.676H108.025L106.731 200.252L106.73 200.253C106.62 199.113 105.789 198.174 104.671 197.926C98.062 196.466 91.774 193.815 86.1146 190.102C85.1446 189.467 83.8738 189.538 82.9805 190.278L72.6426 198.84L60.996 187.191L69.5581 176.853C70.3014 175.956 70.3687 174.678 69.7256 173.707C65.9862 168.073 63.3361 161.787 61.913 155.177C61.6782 154.055 60.7413 153.216 59.6003 153.104L46.1944 151.811V135.275L59.599 133.982V133.983C60.7377 133.872 61.6746 133.04 61.9189 131.923C63.3762 125.314 66.0265 119.026 69.7363 113.365C70.3712 112.395 70.2992 111.123 69.5593 110.231L60.9961 99.8931L72.6447 88.2478L82.9827 96.8098C83.8795 97.552 85.1574 97.6205 86.1285 96.9774C91.7629 93.2368 98.0488 90.5867 104.659 89.1636C105.778 88.9406 106.619 88.0119 106.732 86.878L108.026 73.4993H123.791L125.085 86.878H125.086C125.197 88.0178 126.037 88.9524 127.159 89.186C133.768 90.6055 140.054 93.251 145.688 96.9868C146.661 97.6287 147.939 97.5579 148.834 96.8134L159.172 88.2489L170.82 99.8976L162.258 110.236C161.518 111.129 161.447 112.4 162.082 113.37C165.794 119.029 168.445 125.317 169.905 131.925C170.146 133.041 171.079 133.873 172.216 133.984L185.621 135.275L185.622 151.81Z" fill="#215DA8"/>
<defs>
<linearGradient id="paint0_linear_197_21" x1="196.064" y1="218.209" x2="91.4859" y2="18.4833" gradientUnits="userSpaceOnUse">
<stop stop-color="#407BFF"/>
<stop offset="0.485385" stop-color="#E6EFF2" stop-opacity="0.572861"/>
<stop offset="1" stop-color="#F0F0F0"/>
</linearGradient>
</defs>
</svg>
