<svg width="232" height="218" viewBox="0 0 232 218" fill="none" xmlns="http://www.w3.org/2000/svg">
<path opacity="0.5" d="M80.4091 47.0233C58.9321 58.8242 35.8857 67.332 23.4626 84.6775C11.2779 102.071 9.71654 128.302 19.3713 148.109C28.978 168.154 49.7528 182.013 70.4399 190.148C90.8886 198.236 111.298 200.361 130.95 197.62C150.412 194.593 169.356 186.747 185.304 172.84C201.204 159.172 214.345 139.49 215.183 119.316C216.021 99.1411 204.842 78.2831 190.369 58.9948C176.087 39.993 158.799 22.3704 140.153 21.3446C121.555 20.0804 101.886 35.2224 80.4091 47.0233Z" fill="url(#paint0_linear_197_24)"/>
<path d="M160.228 211.212H91.5915C69.1596 211.212 50.9081 192.963 50.9081 170.533V101.896C50.9081 79.4638 69.1574 61.2123 91.5915 61.2123H160.228C182.66 61.2123 200.908 79.4616 200.908 101.896V170.533C200.908 192.964 182.659 211.212 160.228 211.212V211.212ZM91.5915 66.7831C72.231 66.7831 56.4801 82.534 56.4801 101.895V170.532C56.4801 189.894 72.231 205.643 91.5915 205.643H160.228C179.59 205.643 195.34 189.892 195.34 170.532V101.895C195.34 82.534 179.589 66.7831 160.228 66.7831H91.5915Z" fill="#215DA8"/>
<path d="M163.953 174.335H87.8739C85.1279 174.335 82.894 176.57 82.894 179.316C82.894 182.062 85.1277 184.295 87.8739 184.295H163.953C166.699 184.295 168.935 182.062 168.935 179.316C168.933 176.57 166.7 174.335 163.953 174.335Z" fill="#FF931D"/>
<path d="M122.371 169.729C122.645 170 122.964 170.243 123.34 170.465C123.931 170.826 124.59 171.055 125.283 171.141L125.913 171.202C126.194 171.202 126.463 171.166 126.676 171.13L126.908 171.101C127.263 171.026 127.623 170.905 127.99 170.734C128.17 170.653 128.337 170.557 128.518 170.446C128.709 170.327 128.889 170.194 129.111 170.019C129.197 169.963 129.327 169.878 129.458 169.747L152.71 146.495C153.647 145.558 154.162 144.307 154.162 142.974C154.162 141.64 153.647 140.39 152.71 139.453C150.836 137.58 147.542 137.577 145.668 139.453L130.893 154.226L130.891 93.1093C130.891 90.3632 128.659 88.1294 125.913 88.1294C123.167 88.1294 120.933 90.3631 120.933 93.1093V154.204L106.159 139.429C104.216 137.486 101.06 137.486 99.1171 139.429C97.1756 141.372 97.1756 144.528 99.1171 146.471L122.371 169.729Z" fill="#FF931D"/>
<defs>
<linearGradient id="paint0_linear_197_24" x1="196.064" y1="217.479" x2="91.486" y2="17.7533" gradientUnits="userSpaceOnUse">
<stop stop-color="#407BFF"/>
<stop offset="0.485385" stop-color="#E6EFF2" stop-opacity="0.572861"/>
<stop offset="1" stop-color="#F0F0F0"/>
</linearGradient>
</defs>
</svg>
