<svg width="38" height="24" viewBox="0 0 38 24" fill="none" xmlns="http://www.w3.org/2000/svg">
<path d="M0.00736874 12.0153C-0.227614 5.82848 5.19151 0.111084 11.3846 0.036906C14.541 -0.232313 17.6119 0.993437 20.0006 2.99261C19.0207 4.07 18.0238 5.13494 16.9588 6.13193C14.8559 4.85431 12.324 3.88066 9.86627 4.74538C5.90217 5.87413 3.50151 10.5546 4.96846 14.4326C6.18332 18.4828 11.1097 20.7055 14.9705 19.0041C16.9697 18.2883 18.2878 16.4437 18.8662 14.4616C16.575 14.416 14.2832 14.4445 11.992 14.3812C11.9863 13.018 11.9806 11.66 11.9863 10.2968C15.8072 10.2911 19.6339 10.2797 23.4605 10.3139C23.6955 13.654 23.2027 17.2285 21.0313 19.9093C18.058 23.7359 12.5647 24.859 8.09586 23.3578C3.35315 21.8 -0.0958577 17.0221 0.00736874 12.0153ZM30.9084 6.85919H34.3164C34.3226 7.99935 34.3335 9.14521 34.3398 10.2849C35.4794 10.2963 36.6253 10.302 37.7654 10.3077V13.7219L34.3398 13.739C34.3283 14.8849 34.3226 16.0246 34.3164 17.1704C33.1768 17.1647 32.0361 17.1704 30.9022 17.1704C30.8913 16.0246 30.8913 14.8849 30.8793 13.7448C29.7397 13.7328 28.5938 13.7276 27.4537 13.7214V10.3072C28.5938 10.3015 29.734 10.2957 30.8793 10.2843C30.885 9.14521 30.8964 7.99935 30.9084 6.85919Z" fill="#DC4E41"/>
</svg>
