<svg width="16" height="16" viewBox="0 0 16 16" fill="none" xmlns="http://www.w3.org/2000/svg">
<path d="M7.99995 9.13789e-05C5.87816 9.13789e-05 3.84331 0.842976 2.34324 2.34333C0.842885 3.8435 0 5.87834 0 8.00005C0 10.1217 0.842885 12.1567 2.34324 13.6568C3.8434 15.1571 5.87825 16 7.99995 16C10.1217 16 12.1566 15.1571 13.6567 13.6568C15.157 12.1566 15.9999 10.1217 15.9999 8.00005C15.9999 6.59574 15.6303 5.21612 14.9281 4.00002C14.226 2.78392 13.216 1.77395 11.9999 1.07178C10.7838 0.369647 9.40417 0 7.99986 0L7.99995 9.13789e-05ZM8.48279 11.3099C8.33886 11.442 8.15011 11.5147 7.95474 11.5131C7.75581 11.5159 7.56313 11.4445 7.41385 11.3131C7.25599 11.1709 7.17099 10.965 7.18277 10.7531C7.17831 10.55 7.25956 10.3547 7.40635 10.2147C7.5517 10.0702 7.74974 9.99131 7.95474 9.99631C8.15617 9.99327 8.35045 10.072 8.4928 10.2147C8.6353 10.3574 8.71387 10.5515 8.71066 10.7531C8.72137 10.9633 8.6378 11.1674 8.4828 11.3099L8.48279 11.3099ZM10.3796 6.60767C10.2694 6.81392 10.129 7.00267 9.96315 7.16768C9.80315 7.32446 9.51439 7.58929 9.09672 7.96215V7.96197C8.99975 8.04929 8.90743 8.14161 8.82029 8.23876C8.75993 8.30501 8.70797 8.3784 8.66547 8.45715C8.63225 8.52036 8.60547 8.58661 8.58547 8.65519C8.56672 8.72161 8.53868 8.83715 8.50189 9.00322C8.49225 9.15358 8.42297 9.29394 8.3094 9.39305C8.19582 9.49233 8.04743 9.54198 7.89707 9.53126C7.73207 9.53555 7.57207 9.4734 7.4535 9.3584C7.32439 9.22019 7.25904 9.0343 7.27314 8.84553C7.25707 8.36983 7.42957 7.90715 7.75315 7.55803C7.89922 7.40124 8.09547 7.21463 8.3419 6.99802C8.55905 6.80838 8.71583 6.66552 8.81226 6.56927C8.90779 6.4732 8.98976 6.36445 9.05601 6.24641C9.12155 6.12838 9.15565 5.99534 9.15476 5.86034C9.15851 5.59891 9.04851 5.34857 8.85315 5.1748C8.63922 4.98391 8.35957 4.88337 8.07317 4.8948C7.77156 4.86909 7.47298 4.97141 7.25067 5.17677C7.04425 5.41856 6.89192 5.70157 6.80389 6.00713C6.68818 6.38945 6.4696 6.58071 6.14834 6.58071C5.96727 6.58464 5.79298 6.51214 5.66834 6.38071C5.54727 6.26839 5.47673 6.11196 5.4728 5.94678C5.48102 5.5982 5.58852 5.25909 5.78227 4.96926C6.00763 4.6223 6.31905 4.33964 6.68637 4.14924C7.11351 3.92495 7.59046 3.81316 8.0728 3.82441C8.52101 3.8153 8.96546 3.90798 9.37283 4.09548C9.7255 4.25745 10.027 4.51316 10.2439 4.83478C10.4455 5.13496 10.5525 5.48873 10.5512 5.85033C10.558 6.11319 10.4991 6.37335 10.3796 6.60764L10.3796 6.60767Z" fill="#215DA8"/>
</svg>
