<svg width="40" height="40" viewBox="0 0 40 40" fill="none" xmlns="http://www.w3.org/2000/svg">
<circle cx="20" cy="20" r="20" fill="#0E76A8"/>
<path d="M16.7266 17.8828V25.625H14.1484V17.8828H16.7266ZM16.8906 15.4922C16.8958 15.8724 16.763 16.1901 16.4922 16.4453C16.2266 16.7005 15.875 16.8281 15.4375 16.8281H15.4219C14.9948 16.8281 14.651 16.7005 14.3906 16.4453C14.1302 16.1901 14 15.8724 14 15.4922C14 15.1068 14.1328 14.7891 14.3984 14.5391C14.6693 14.2839 15.0208 14.1562 15.4531 14.1562C15.8854 14.1562 16.2318 14.2839 16.4922 14.5391C16.7526 14.7891 16.8854 15.1068 16.8906 15.4922ZM26 21.1875V25.625H23.4297V21.4844C23.4297 20.9375 23.3229 20.5104 23.1094 20.2031C22.901 19.8906 22.5729 19.7344 22.125 19.7344C21.7969 19.7344 21.5208 19.8255 21.2969 20.0078C21.0781 20.1849 20.9141 20.4062 20.8047 20.6719C20.7474 20.8281 20.7188 21.0391 20.7188 21.3047V25.625H18.1484C18.1589 23.5469 18.1641 21.862 18.1641 20.5703C18.1641 19.2786 18.1615 18.5078 18.1562 18.2578L18.1484 17.8828H20.7188V19.0078H20.7031C20.8073 18.8411 20.9141 18.6953 21.0234 18.5703C21.1328 18.4453 21.2786 18.3099 21.4609 18.1641C21.6484 18.0182 21.875 17.9062 22.1406 17.8281C22.4115 17.7448 22.7109 17.7031 23.0391 17.7031C23.9297 17.7031 24.6458 18 25.1875 18.5937C25.7292 19.1823 26 20.0469 26 21.1875Z" fill="white"/>
</svg>
