<svg width="162" height="67" viewBox="0 0 162 67" fill="none" xmlns="http://www.w3.org/2000/svg">
<path d="M14.136 37.8H29.028V48H0.808V0.0599971H14.136V37.8ZM51.9583 48.476C48.1503 48.476 44.7277 47.6827 41.6903 46.096C38.6983 44.5093 36.341 42.2427 34.6183 39.296C32.8957 36.3493 32.0343 32.8813 32.0343 28.892C32.0343 24.948 32.8957 21.5027 34.6183 18.556C36.3863 15.6093 38.7663 13.3427 41.7583 11.756C44.7957 10.1693 48.2183 9.376 52.0263 9.376C55.8343 9.376 59.2343 10.1693 62.2263 11.756C65.2637 13.3427 67.6437 15.6093 69.3663 18.556C71.1343 21.5027 72.0183 24.948 72.0183 28.892C72.0183 32.836 71.1343 36.304 69.3663 39.296C67.6437 42.2427 65.2637 44.5093 62.2263 46.096C59.189 47.6827 55.7663 48.476 51.9583 48.476ZM51.9583 36.916C53.817 36.916 55.3583 36.236 56.5823 34.876C57.8517 33.4707 58.4863 31.476 58.4863 28.892C58.4863 26.308 57.8517 24.336 56.5823 22.976C55.3583 21.616 53.8397 20.936 52.0263 20.936C50.213 20.936 48.6943 21.616 47.4703 22.976C46.2463 24.336 45.6343 26.308 45.6343 28.892C45.6343 31.5213 46.2237 33.516 47.4023 34.876C48.581 36.236 50.0997 36.916 51.9583 36.916Z" fill="#FF931D"/>
<path d="M91.5168 9.376C94.1008 9.376 96.3448 9.89733 98.2488 10.94C100.198 11.9827 101.694 13.388 102.737 15.156V9.852H116.065V47.592C116.065 51.1733 115.385 54.392 114.025 57.248C112.665 60.1493 110.534 62.4613 107.633 64.184C104.777 65.9067 101.15 66.768 96.7528 66.768C90.8595 66.768 86.1448 65.3853 82.6088 62.62C79.0728 59.8547 77.0555 56.092 76.5568 51.332H89.6808C89.9528 52.556 90.6328 53.508 91.7208 54.188C92.8088 54.868 94.2141 55.208 95.9368 55.208C100.47 55.208 102.737 52.6693 102.737 47.592V42.696C101.694 44.464 100.198 45.8693 98.2488 46.912C96.3448 47.9547 94.1008 48.476 91.5168 48.476C88.4795 48.476 85.7141 47.6827 83.2208 46.096C80.7728 44.5093 78.8235 42.2427 77.3728 39.296C75.9675 36.304 75.2648 32.836 75.2648 28.892C75.2648 24.948 75.9675 21.5027 77.3728 18.556C78.8235 15.6093 80.7728 13.3427 83.2208 11.756C85.7141 10.1693 88.4795 9.376 91.5168 9.376ZM102.737 28.892C102.737 26.444 102.057 24.5173 100.697 23.112C99.3821 21.7067 97.7501 21.004 95.8008 21.004C93.8061 21.004 92.1515 21.7067 90.8368 23.112C89.5221 24.472 88.8648 26.3987 88.8648 28.892C88.8648 31.34 89.5221 33.2893 90.8368 34.74C92.1515 36.1453 93.8061 36.848 95.8008 36.848C97.7501 36.848 99.3821 36.1453 100.697 34.74C102.057 33.3347 102.737 31.3853 102.737 28.892ZM141.408 48.476C137.6 48.476 134.177 47.6827 131.14 46.096C128.148 44.5093 125.79 42.2427 124.068 39.296C122.345 36.3493 121.484 32.8813 121.484 28.892C121.484 24.948 122.345 21.5027 124.068 18.556C125.836 15.6093 128.216 13.3427 131.208 11.756C134.245 10.1693 137.668 9.376 141.476 9.376C145.284 9.376 148.684 10.1693 151.676 11.756C154.713 13.3427 157.093 15.6093 158.816 18.556C160.584 21.5027 161.468 24.948 161.468 28.892C161.468 32.836 160.584 36.304 158.816 39.296C157.093 42.2427 154.713 44.5093 151.676 46.096C148.638 47.6827 145.216 48.476 141.408 48.476ZM141.408 36.916C143.266 36.916 144.808 36.236 146.032 34.876C147.301 33.4707 147.936 31.476 147.936 28.892C147.936 26.308 147.301 24.336 146.032 22.976C144.808 21.616 143.289 20.936 141.476 20.936C139.662 20.936 138.144 21.616 136.92 22.976C135.696 24.336 135.084 26.308 135.084 28.892C135.084 31.5213 135.673 33.516 136.852 34.876C138.03 36.236 139.549 36.916 141.408 36.916Z" fill="#215DA8"/>
</svg>
