<svg width="17" height="18" viewBox="0 0 17 18" fill="none" xmlns="http://www.w3.org/2000/svg">
<path d="M4.84567 4.94823L3.58601 3.09259C1.64547 4.40501 0.363077 6.48874 0.0659609 8.8125C-0.231351 11.1361 0.485453 13.4755 2.03341 15.2338C3.58114 16.9923 5.81077 18 8.15345 18C10.4962 18 12.7257 16.9924 14.2735 15.2338C15.8214 13.4754 16.538 11.136 16.2409 8.8125C15.9436 6.48874 14.6612 4.40501 12.7207 3.09259L11.4583 4.94823C12.8644 5.89802 13.7938 7.40694 14.0095 9.08978C14.2254 10.7728 13.7067 12.4672 12.5857 13.7411C11.465 15.015 9.85015 15.745 8.15335 15.745C6.45656 15.745 4.84195 15.015 3.72097 13.7411C2.59998 12.4673 2.08146 10.7729 2.29719 9.08978C2.51292 7.40689 3.44248 5.89802 4.84843 4.94823H4.84567Z" fill="#6F767D"/>
<path d="M7.02734 0H9.2766V7.30991H7.02734V0Z" fill="#6F767D"/>
</svg>
