<svg width="29" height="30" viewBox="0 0 29 30" fill="none" xmlns="http://www.w3.org/2000/svg">
<path d="M19.525 11.9225C20.4575 11.4873 20.8927 10.3994 20.5197 9.43586C20.1468 8.44114 19.0899 7.944 18.0954 8.22368L16.3858 3.7169C16.1371 3.06407 15.4223 2.81564 14.8317 3.0331C14.6141 3.12633 14.3966 3.28178 14.2411 3.53046L10.6976 9.28056L13.2774 16.0874L19.7734 18.0456C20.0531 18.1389 20.3018 18.1079 20.5505 18.0146C21.1098 17.797 21.483 17.1444 21.2343 16.4606L19.525 11.9225Z" fill="white"/>
<path d="M22.9437 8.50365C23.1302 9.00101 23.6898 9.24967 24.1869 9.06301L28.2585 7.50893C28.7559 7.32247 29.0046 6.76291 28.8179 6.26577C28.6314 5.76842 28.0719 5.51976 27.5747 5.70641L23.5031 7.2605C23.006 7.47796 22.7573 8.03754 22.9437 8.50365Z" fill="white"/>
<path d="M23.0372 0.204808C22.5711 -0.0128688 21.9805 0.204808 21.7628 0.670944L19.9911 4.61837C19.7734 5.0845 19.9911 5.67509 20.4572 5.89277C20.7059 5.986 20.9546 5.986 21.2032 5.92377C21.4209 5.83054 21.6383 5.67509 21.7316 5.42642L23.5033 1.47899C23.721 0.981854 23.5036 0.422496 23.0372 0.204813L23.0372 0.204808Z" fill="white"/>
<path d="M28.0414 13.4145L24.0942 11.6429C23.6281 11.4252 23.0375 11.6429 22.8198 12.1091C22.6022 12.5752 22.8198 13.1658 23.286 13.3835L27.2334 15.1552C27.4821 15.2484 27.7307 15.2484 27.9794 15.1862C28.1971 15.093 28.4145 14.9375 28.5078 14.6889C28.7252 14.1915 28.5078 13.6321 28.0414 13.4145L28.0414 13.4145Z" fill="white"/>
<path d="M13.5883 24.3241C13.5883 24.3241 13.5573 24.3241 13.5883 24.3241C14.0545 24.1064 14.3032 23.5781 14.1167 23.1119C13.9613 22.7078 13.5573 22.4591 13.1532 22.5213C13.1222 22.5213 13.1222 22.4903 13.1532 22.4903C13.6194 22.3039 13.8681 21.7755 13.6816 21.2781C13.5261 20.874 13.1222 20.6253 12.7181 20.6875C12.6871 20.6875 12.6871 20.6565 12.7181 20.6565C13.1843 20.4701 13.4329 19.9417 13.2465 19.4443C13.06 18.9782 12.5317 18.7295 12.0343 18.916C11.6924 19.0402 11.195 19.2579 10.7289 19.4443L9.79636 17.3619L12.3452 16.3984L9.76539 9.65369L4.17069 11.7671C3.11397 12.1713 2.58559 13.2902 2.95851 14.3469L2.33693 14.5646C1.99502 14.6888 1.80857 15.0929 1.9328 15.4038L2.6166 17.2376C2.74083 17.5795 3.14496 17.735 3.48689 17.6105L4.10846 17.3928C4.54359 18.4185 5.69357 18.9159 6.75051 18.5118L6.96819 18.4185L7.90069 20.3767C7.46556 20.5322 7.09263 20.6564 6.875 20.7497C6.25342 21.0606 5.66282 22.0551 5.28989 22.8631C5.16566 23.1428 4.91698 23.3915 4.6061 23.5159L0.938131 24.9768C0.254335 25.2564 -0.0875633 26.0335 0.16109 26.7173L0.938131 28.7687C1.18681 29.4525 1.96382 29.8254 2.67865 29.5768L6.40839 28.2091C6.62607 28.1159 6.87452 28.1159 7.12321 28.1469C8.83276 28.3024 11.5678 27.0589 13.153 26.4686C13.6814 26.2509 14.0233 26.1577 14.0233 26.1577C14.4895 25.9713 14.7382 25.4429 14.5517 24.9455C14.4277 24.5106 13.9926 24.2929 13.5884 24.324L13.5883 24.3241Z" fill="white"/>
</svg>
