<svg width="29" height="28" viewBox="0 0 29 28" fill="none" xmlns="http://www.w3.org/2000/svg">
<path d="M20.2991 13.9337C20.2557 13.9337 20.2214 13.9681 20.2214 14.0138C20.2214 14.0572 20.2557 14.0938 20.2991 14.0938C20.3402 14.0938 20.3745 14.0572 20.3745 14.0138C20.3744 13.9681 20.3404 13.9337 20.2991 13.9337Z" fill="white"/>
<path d="M28.8524 10.9166C28.8113 10.8458 24.9118 3.79199 24.0776 2.38396C23.1908 0.889011 18.5991 0.114274 18.4025 0.0822711C18.3908 0.0799561 18.3771 0.0799561 18.3659 0.0799561H10.5943C10.5829 0.0799561 10.5692 0.0799561 10.5577 0.0822711C10.3611 0.114296 5.76923 0.889061 4.88258 2.38396C4.04838 3.79189 0.148916 10.8455 0.107826 10.9166C0.0871833 10.9554 0.0781162 11.0011 0.080431 11.0468C0.094128 11.1793 0.432508 14.2878 5.6918 14.6513L5.69161 27.5083C5.69161 27.634 5.79444 27.7369 5.92022 27.7369H23.0398C23.1656 27.7369 23.2684 27.634 23.2684 27.5083V14.6513C28.5277 14.2878 28.866 11.1793 28.8798 11.0468C28.8819 11.0009 28.8726 10.9552 28.8522 10.9164L28.8524 10.9166ZM19.1132 8.80237C19.3578 8.80237 19.5566 9.00359 19.5566 9.25033C19.5566 9.49495 19.3577 9.69597 19.1132 9.69597C18.8686 9.69597 18.6699 9.49476 18.6699 9.25033C18.6699 9.00339 18.8688 8.80237 19.1132 8.80237ZM18.6491 11.6732C18.537 11.6184 18.4 11.6641 18.345 11.7783C18.3267 11.815 18.1141 12.2537 17.9679 12.8755C17.9015 12.8411 17.8284 12.8047 17.753 12.7634C17.4101 12.5782 17.0193 12.3702 16.5987 12.3702C16.4021 12.3702 16.1988 12.4159 15.9886 12.5302C16.057 11.6616 16.32 11.0696 16.7726 10.7634C16.7795 10.7588 16.7863 10.7544 16.7932 10.7497C17.4972 10.2925 18.4548 10.6674 18.4594 10.6674C18.4664 10.672 19.2342 11.0079 19.4148 11.6136C19.5062 11.9177 19.4331 12.2514 19.1999 12.6056C18.9302 13.0148 18.6969 13.1176 18.3998 13.0489C18.537 12.4318 18.7496 11.9884 18.754 11.9792C18.8094 11.8675 18.7633 11.7303 18.6491 11.6732L18.6491 11.6732ZM17.9497 0.537374C17.4881 1.19561 16.2949 2.59445 14.4801 2.59445C12.6698 2.59445 11.4744 1.19561 11.0104 0.537374H17.9497ZM13.6641 10.7339C13.3143 11.0583 13.0789 11.5042 12.9601 12.0663C12.9464 12.0983 12.9373 12.1348 12.9395 12.1715V12.1761C12.8984 12.3954 12.8754 12.631 12.871 12.8824C12.7568 12.9395 12.5783 13.0035 12.4458 12.9578C12.3453 12.9235 12.2675 12.823 12.2149 12.6607C12.048 12.151 11.5292 11.9978 11.1931 11.9544C11.3166 11.4881 11.5406 11.1453 11.8583 10.9281C12.4276 10.5419 13.1956 10.6264 13.664 10.7338L13.6641 10.7339ZM10.6057 9.29856C10.9028 9.29856 11.1451 9.54318 11.1451 9.84261C11.1451 10.142 10.9028 10.3843 10.6057 10.3843C10.3086 10.3843 10.0663 10.142 10.0663 9.84261C10.0663 9.54301 10.3088 9.29856 10.6057 9.29856ZM8.00691 15.0541C8.00691 14.6405 8.33835 14.3045 8.74752 14.3045C9.15671 14.3045 9.49045 14.6405 9.49045 15.0541C9.49045 15.4656 9.15671 15.8015 8.74752 15.8015C8.33854 15.8015 8.00691 15.4655 8.00691 15.0541ZM9.02187 16.7661C9.97509 16.2588 11.0676 15.2004 11.0676 13.0154C11.0676 12.796 11.079 12.5925 11.1042 12.4052C11.3305 12.4303 11.6847 12.5173 11.7808 12.803C11.9066 13.1869 12.1329 13.3357 12.3019 13.3927C12.3843 13.4201 12.4664 13.4315 12.5488 13.4315C12.6586 13.4315 12.7637 13.4109 12.8552 13.3812C12.6379 16.4737 9.68263 16.7549 9.55008 16.7663L9.02187 16.7661ZM11.104 16.7661C12.1394 16.2588 13.3257 15.2004 13.3257 13.0175V13.0152C13.3257 12.7959 13.3394 12.5923 13.3668 12.4027C13.5998 12.4278 13.9769 12.5148 14.073 12.8026C14.1645 13.077 14.313 13.2643 14.5164 13.3604C14.6146 13.4061 14.722 13.4288 14.8364 13.4288C14.9666 13.4288 15.1084 13.3991 15.2593 13.3397C15.3508 13.3054 15.4032 13.2186 15.4032 13.1271C15.4032 13.0997 15.3986 13.07 15.3872 13.0426C15.3415 12.9261 15.209 12.869 15.0901 12.9147C14.9803 12.9581 14.825 12.9992 14.7106 12.9467C14.6262 12.908 14.5575 12.8096 14.5073 12.661C14.3381 12.149 13.8033 11.9958 13.4605 11.9501C13.5908 11.5068 13.8147 11.1684 14.1325 10.9398C14.1782 10.9078 14.2239 10.878 14.2696 10.8507C14.2787 10.846 14.2903 10.8416 14.2993 10.8346C14.9256 10.4895 15.7256 10.5649 16.2033 10.6564C15.746 11.1501 15.5153 11.9387 15.513 13.0084V13.0108V13.0154C15.513 13.0542 15.513 13.0931 15.5107 13.1296C15.4512 16.453 12.7541 16.7547 12.6352 16.7661L11.104 16.7661ZM14.014 16.7661C14.9146 16.2655 15.9432 15.2301 15.9706 13.1089C16.4826 12.6403 16.9055 12.8279 17.5363 13.166C17.6461 13.2255 17.7603 13.2872 17.8791 13.342C17.7877 13.9638 17.7991 14.6951 18.0985 15.3763C18.3545 15.9547 18.782 16.4186 19.3762 16.7661L14.014 16.7661ZM20.3089 14.5512C20.0141 14.5512 19.7742 14.3112 19.7742 14.0141C19.7742 13.717 20.0141 13.477 20.3089 13.477C20.6016 13.477 20.8416 13.717 20.8416 14.0141C20.8414 14.3112 20.6014 14.5512 20.3089 14.5512Z" fill="white"/>
<path d="M16.9234 13.8121C16.7588 13.8121 16.6263 13.9493 16.6263 14.1162C16.6263 14.283 16.7588 14.4202 16.9234 14.4202C17.0856 14.4202 17.2182 14.283 17.2182 14.1162C17.218 13.9493 17.0856 13.8121 16.9234 13.8121Z" fill="white"/>
<path d="M13.844 14.4207C13.5994 14.4207 13.4007 14.6196 13.4007 14.8663C13.4007 15.1132 13.5996 15.3119 13.844 15.3119C14.0886 15.3119 14.2874 15.113 14.2874 14.8663C14.2874 14.6196 14.0885 14.4207 13.844 14.4207Z" fill="white"/>
<path d="M10.5964 9.92692C10.6421 9.92692 10.6787 9.88815 10.6787 9.84243C10.6787 9.79439 10.6421 9.75562 10.5964 9.75562C10.5506 9.75562 10.514 9.79439 10.514 9.84243C10.514 9.88796 10.5506 9.92692 10.5964 9.92692Z" fill="white"/>
<path d="M8.73848 14.761C8.58299 14.761 8.45508 14.8935 8.45508 15.0536C8.45508 15.2136 8.58298 15.344 8.73848 15.344C8.89628 15.344 9.02419 15.2138 9.02419 15.0536C9.02419 14.8935 8.89609 14.761 8.73848 14.761Z" fill="white"/>
</svg>
