<svg width="30" height="26" viewBox="0 0 30 26" fill="none" xmlns="http://www.w3.org/2000/svg">
<path d="M10.6791 0.0400391C10.2728 0.0400391 9.95913 0.353724 9.95913 0.759971V2.91977H20.0382V0.759971C20.0382 0.353724 19.7245 0.0400391 19.3183 0.0400391H10.6791ZM2.07526 4.35963C1.21266 4.40849 0.562083 5.12553 0.601659 5.98948C0.601016 6.0004 0.601659 6.01133 0.601659 6.02322V14.2153V14.2343C0.583018 14.9118 0.978656 15.5266 1.60282 15.7908C1.68188 15.8246 1.75452 15.8721 1.81655 15.9316L12.8402 17.2293V15.8778C12.8402 15.4803 13.1625 15.1579 13.5601 15.1579H16.4398C16.8374 15.1579 17.1597 15.4803 17.1597 15.8778V17.2293L28.1833 15.9312C28.2457 15.8718 28.318 15.8242 28.3971 15.7905C29.0212 15.5263 29.4169 14.9114 29.3982 14.2339V14.215V5.98908C29.4378 5.12417 28.7857 4.40687 27.9218 4.35923L2.07743 4.35956L2.07526 4.35963ZM14.2787 16.5985V17.8317C14.3205 17.9689 14.3205 18.1151 14.2787 18.2521V19.4782H15.7186V18.2562C15.6755 18.1173 15.6755 17.9688 15.7186 17.83V16.5984L14.2787 16.5985ZM2.03988 17.4071V24.8919C2.03988 25.1258 2.15879 25.3605 2.44902 25.578C2.73924 25.7956 3.19016 25.9576 3.70343 25.9576H26.2945C26.8078 25.9576 27.2584 25.7953 27.5489 25.578C27.8391 25.3605 27.958 25.1258 27.958 24.8919V17.4071L17.1591 18.6782V20.1981C17.1591 20.5957 16.8367 20.9181 16.4391 20.9181H13.5594C13.1618 20.9181 12.8395 20.5957 12.8395 20.1981V18.6782L2.03988 17.4071Z" fill="white"/>
</svg>
