<svg width="198" height="188" viewBox="0 0 198 188" fill="none" xmlns="http://www.w3.org/2000/svg">
<circle cx="94" cy="94" r="94" fill="#F0F7FE"/>
<circle cx="168" cy="35" r="30" fill="#61D275"/>
<path d="M163.5 41.3L157.2 35L155.1 37.1L163.5 45.5L181.5 27.5L179.4 25.4L163.5 41.3Z" fill="white"/>
<path d="M130.999 57H118.666C118.666 43.3717 107.628 32.3334 93.9993 32.3334C80.371 32.3334 69.3327 43.3717 69.3327 57H56.9993C50.216 57 44.666 62.55 44.666 69.3334V143.333C44.666 150.117 50.216 155.667 56.9993 155.667H130.999C137.783 155.667 143.333 150.117 143.333 143.333V69.3334C143.333 62.55 137.783 57 130.999 57ZM81.666 81.6667C81.666 85.0584 78.891 87.8334 75.4993 87.8334C72.1077 87.8334 69.3327 85.0584 69.3327 81.6667V69.3334H81.666V81.6667ZM93.9993 44.6667C100.783 44.6667 106.333 50.2167 106.333 57H81.666C81.666 50.2167 87.216 44.6667 93.9993 44.6667ZM118.666 81.6667C118.666 85.0584 115.891 87.8334 112.499 87.8334C109.108 87.8334 106.333 85.0584 106.333 81.6667V69.3334H118.666V81.6667Z" fill="#FF931D"/>
</svg>
