<svg width="15" height="18" viewBox="0 0 15 18" fill="none" xmlns="http://www.w3.org/2000/svg">
<path d="M13.517 5.38658H11.8423C11.684 2.38235 9.73494 0 7.36054 0C4.98615 0 3.03709 2.38218 2.87925 5.38615H1.20419C0.53926 5.38615 0 5.92541 0 6.59034L0.722554 16.7958C0.722554 17.4611 1.26181 18 1.92674 18H12.7945C13.4598 18 13.9987 17.4611 13.9987 16.7958L14.7213 6.59034C14.7214 5.92541 14.1822 5.3865 13.5172 5.3865L13.517 5.38658ZM7.36059 0.963779C9.20953 0.963779 10.728 2.91486 10.8759 5.38658L3.84514 5.38641C3.99297 2.91469 5.51147 0.963611 7.36041 0.963611L7.36059 0.963779ZM3.32652 8.096C2.92754 8.096 2.60397 7.77261 2.60397 7.37345C2.60397 6.97446 2.92735 6.65089 3.32652 6.65089C3.72551 6.65089 4.04907 6.97428 4.04907 7.37345C4.04907 7.77261 3.72569 8.096 3.32652 8.096ZM11.3946 8.096C10.9957 8.096 10.672 7.77261 10.672 7.37345C10.672 6.97446 10.9957 6.65089 11.3946 6.65089C11.7934 6.65089 12.1171 6.97428 12.1171 7.37345C12.1171 7.77261 11.7934 8.096 11.3946 8.096Z" fill="#215DA8"/>
</svg>
