<svg width="14" height="18" viewBox="0 0 14 18" fill="none" xmlns="http://www.w3.org/2000/svg">
<path d="M12 6H11.1429V4.28571C11.1429 1.92 9.22286 0 6.85714 0C4.49143 0 2.57143 1.92 2.57143 4.28571V6H1.71429C0.771429 6 0 6.77143 0 7.71429V16.2857C0 17.2286 0.771429 18 1.71429 18H12C12.9429 18 13.7143 17.2286 13.7143 16.2857V7.71429C13.7143 6.77143 12.9429 6 12 6ZM4.2 4.28571C4.2 2.82 5.39143 1.62857 6.85714 1.62857C8.32286 1.62857 9.51429 2.82 9.51429 4.28571V6H4.2V4.28571ZM10.2857 12.8571H7.71429V15.4286H6V12.8571H3.42857V11.1429H6V8.57143H7.71429V11.1429H10.2857V12.8571Z" fill="#215DA8"/>
</svg>
