<svg width="28" height="31" viewBox="0 0 28 31" fill="none" xmlns="http://www.w3.org/2000/svg">
<path d="M25.2319 3.62348H17.9081V2.43977C17.9081 2.19865 17.713 2.00373 17.4721 2.00373H15.79V0.446296C15.79 0.205181 15.5948 0.0102539 15.354 0.0102539H12.7375C12.4964 0.0102539 12.3014 0.205428 12.3014 0.446296V2.00373H10.6194C10.3782 2.00373 10.1833 2.1989 10.1833 2.43977V3.62348H3.03057C1.33431 3.62348 0.215439 4.66219 0.215439 6.34027V18.2123C0.215439 19.9173 1.28346 20.942 3.03057 20.942H25.5879C27.3209 20.942 28 20.3058 28 17.8565V6.3404C28 4.63892 26.9653 3.62335 25.232 3.62335L25.2319 3.62348ZM5.92864 18.2633C5.92864 18.7001 5.57331 19.0555 5.13651 19.0555C4.69972 19.0555 4.34439 18.7001 4.34439 18.2633V16.2699C4.34439 15.8331 4.69972 15.4778 5.13651 15.4778C5.57331 15.4778 5.92864 15.8331 5.92864 16.2699V18.2633ZM10.1649 18.2633C10.1649 18.7001 9.80958 19.0555 9.37279 19.0555C8.936 19.0555 8.58066 18.7001 8.58066 18.2633V12.6566C8.58066 12.2199 8.936 11.8645 9.37279 11.8645C9.80957 11.8645 10.1649 12.2198 10.1649 12.6566V18.2633ZM15.3534 2.87591H17.0355V3.62361H11.0551V2.87591H12.7372C12.9783 2.87591 13.1733 2.68074 13.1733 2.43987L13.173 0.88244H14.9174V2.43987L15.3534 2.87591ZM14.2765 18.2634C14.2765 18.7001 13.9212 19.0555 13.4844 19.0555C13.0476 19.0555 12.6922 18.7002 12.6922 18.2634V14.4008C12.6922 13.964 13.0476 13.6087 13.4844 13.6087C13.9212 13.6087 14.2765 13.964 14.2765 14.4008V18.2634ZM18.3881 18.2634C18.3881 18.7001 18.0328 19.0555 17.596 19.0555C17.1592 19.0555 16.8039 18.7002 16.8039 18.2634V11.1615C16.8039 10.7247 17.1592 10.3694 17.596 10.3694C18.0328 10.3694 18.3881 10.7247 18.3881 11.1615V18.2634ZM22.4997 18.2634C22.4997 18.7001 22.1444 19.0555 21.7076 19.0555C21.2708 19.0555 20.9155 18.7002 20.9155 18.2634V7.54824C20.9155 7.11146 21.2708 6.75611 21.7076 6.75611C22.1444 6.75611 22.4997 7.11145 22.4997 7.54824V18.2634ZM21.0993 30.9898C20.8455 30.9898 20.6051 30.8669 20.4566 30.6613L15.0278 23.1487H12.8592L7.4301 30.66C7.18377 31.0007 6.66651 31.0844 6.32432 30.838C6.15274 30.7141 6.0395 30.5309 6.00598 30.3216C5.97246 30.113 6.02213 29.9034 6.14628 29.7318L10.9723 23.0558L2.00402 23.0556C1.56724 23.0556 1.2119 22.7002 1.2119 22.2635C1.2119 21.8267 1.56723 21.4713 2.00402 21.4713H26.2109C26.6477 21.4713 27.0031 21.8267 27.0031 22.2635C27.0028 22.7002 26.6475 23.0556 26.2107 23.0556H16.9144L21.7404 29.7335C21.8643 29.905 21.9142 30.1146 21.8807 30.3237C21.8469 30.5323 21.734 30.7156 21.5621 30.8395C21.4266 30.9376 21.2664 30.9894 21.099 30.9894L21.0993 30.9898Z" fill="white"/>
</svg>
