<svg width="30" height="30" viewBox="0 0 30 30" fill="none" xmlns="http://www.w3.org/2000/svg">
<path d="M8.99817 0.119995C8.60774 0.119995 8.27905 0.448496 8.27905 0.839117V3.96103H7.31992C6.79642 3.96103 6.35993 4.39753 6.35993 4.92103V7.32103H2.51993C1.46459 7.32103 0.59993 8.18569 0.59993 9.24103V21.721C0.59993 22.7764 1.46459 23.641 2.51993 23.641H8.27883V29.8799H21.7188V23.641H27.4799C27.6119 23.641 27.7405 23.6264 27.8652 23.6016C28.7377 23.4216 29.3999 22.6444 29.3999 21.721V9.24104C29.3999 8.1857 28.5353 7.32105 27.4799 7.32105H23.6399V4.92105C23.6399 4.39755 23.2034 3.96105 22.6799 3.96105H21.7191V0.839131C21.7191 0.448488 21.3906 0.120009 20.9999 0.120009L8.99817 0.119995ZM9.23902 1.07999H20.759V7.31999H9.24012V3.96087H9.23926L9.23902 1.07999ZM9.23988 16.4411H20.7588V23.6795L16.3863 20.6186L13.119 23.882L11.199 21.4828L9.23961 23.4412L9.23988 16.4411ZM12.7507 17.9111C11.9611 17.9111 11.3088 18.5595 11.3088 19.3492C11.3088 20.1388 11.9611 20.792 12.7507 20.792C13.5403 20.792 14.1888 20.1388 14.1888 19.3492C14.1888 18.5595 13.5404 17.9111 12.7507 17.9111ZM1.55989 20.7611H8.27878V22.6811L2.51989 22.6813C1.97967 22.6813 1.55989 22.2615 1.55989 21.7213V20.7611ZM21.7199 20.7611H28.4399V21.7211C28.4399 22.2613 28.0201 22.6811 27.4799 22.6811H21.7199V20.7611ZM16.496 21.8655L20.7588 24.8505V28.9202H9.23878V24.8L11.1204 22.9211L13.0413 25.3202L16.496 21.8655Z" fill="white"/>
</svg>
