<svg width="232" height="220" viewBox="0 0 232 220" fill="none" xmlns="http://www.w3.org/2000/svg">
<path opacity="0.5" d="M80.409 47.0233C58.932 58.8242 35.8857 67.332 23.4626 84.6775C11.2779 102.071 9.71649 128.302 19.3712 148.109C28.9779 168.154 49.7527 182.013 70.4398 190.148C90.8886 198.236 111.298 200.361 130.95 197.62C150.412 194.593 169.356 186.747 185.304 172.84C201.204 159.172 214.345 139.49 215.183 119.316C216.021 99.1411 204.841 78.2831 190.369 58.9948C176.087 39.993 158.799 22.3704 140.153 21.3446C121.555 20.0804 101.886 35.2224 80.409 47.0233Z" fill="url(#paint0_linear_197_26)"/>
<path d="M102.198 84.8069C91.3993 84.7779 81.0382 89.0707 73.4247 96.7282C72.0696 98.0821 72.0696 100.278 73.4247 101.632C74.7786 102.987 76.9742 102.987 78.3282 101.632C84.6588 95.2999 93.2443 91.7433 102.198 91.7433C111.151 91.7433 119.738 95.2999 126.069 101.632C127.423 102.987 129.618 102.987 130.972 101.632C132.326 100.278 132.326 98.0822 130.972 96.7282C123.359 89.0704 112.996 84.7778 102.198 84.8069Z" fill="#FF931D"/>
<path d="M144.203 162.603C153.87 151.66 158.899 137.384 158.222 122.798C157.546 108.212 151.219 94.4614 140.581 84.4612C129.941 74.4601 115.828 68.9937 101.228 69.219C86.6286 69.4442 72.689 75.3439 62.3648 85.6689C52.04 95.9937 46.1402 109.932 45.9149 124.532C45.6896 139.132 51.1563 153.246 61.1571 163.885C71.159 174.523 84.9081 180.852 99.4937 181.527C114.08 182.203 128.356 177.175 139.299 167.507L189.989 218.194C191.343 219.548 193.539 219.548 194.893 218.194C196.247 216.84 196.247 214.645 194.893 213.291L144.203 162.603ZM67.4252 160.275C60.5477 153.397 55.8636 144.635 53.9653 135.095C52.068 125.557 53.0422 115.669 56.7637 106.682C60.4862 97.6964 66.7891 90.0154 74.8765 84.6113C82.9638 79.2084 92.4712 76.3242 102.198 76.3242C111.924 76.3242 121.432 79.2085 129.52 84.6113C137.606 90.0154 143.91 97.6964 147.631 106.682C151.354 115.668 152.327 125.557 150.43 135.095C148.532 144.635 143.848 153.397 136.971 160.275C127.74 169.483 115.236 174.652 102.198 174.652C89.1613 174.652 76.6556 169.483 67.4259 160.275H67.4252Z" fill="#215DA8"/>
<defs>
<linearGradient id="paint0_linear_197_26" x1="196.064" y1="217.479" x2="91.4859" y2="17.7533" gradientUnits="userSpaceOnUse">
<stop stop-color="#407BFF"/>
<stop offset="0.485385" stop-color="#E6EFF2" stop-opacity="0.572861"/>
<stop offset="1" stop-color="#F0F0F0"/>
</linearGradient>
</defs>
</svg>
