<svg width="28" height="27" viewBox="0 0 28 27" fill="none" xmlns="http://www.w3.org/2000/svg">
<path d="M23.9706 0.000183586C23.9705 6.87261e-05 23.9704 0 23.9702 0H4.02805C1.84767 0 0.0800781 1.76808 0.0800781 3.94938V18.5609C0.0800781 20.742 1.84743 22.5096 4.02805 22.5096H8.53273C9.56649 22.5096 10.5548 22.9343 11.2662 23.6844C12.752 25.2508 15.2478 25.2505 16.7335 23.6841C17.445 22.934 18.4336 22.5091 19.4674 22.5091H23.9707C26.1518 22.5091 27.9201 20.7417 27.9201 18.5604L27.9198 3.9495C27.9198 1.76846 26.1514 0.00048794 23.9709 0.000367177C23.9708 0.00036717 23.9707 0.000298445 23.9706 0.000183586ZM20.109 11.6726C20.109 11.6726 20.109 11.6726 20.109 11.6726L15.7891 15.9926C14.8008 16.9809 13.1985 16.9809 12.2102 15.9926L7.89042 11.6726C6.30162 10.084 6.30187 7.50763 7.89042 5.91908C9.47897 4.33053 12.0559 4.33053 13.6442 5.91908C13.8404 6.11549 14.1589 6.11543 14.3553 5.91908C15.9438 4.33053 18.5202 4.33053 20.1088 5.91908C21.6973 7.50763 21.698 10.084 20.109 11.6726C20.109 11.6726 20.109 11.6726 20.109 11.6726Z" fill="#215DA8"/>
</svg>
