<svg width="15" height="18" viewBox="0 0 15 18" fill="none" xmlns="http://www.w3.org/2000/svg">
<path fill-rule="evenodd" clip-rule="evenodd" d="M13.4223 6.4321L14.636 5.37373L13.6074 4.19406L12.3921 5.25383C12.7728 5.61146 13.1182 6.00478 13.4223 6.4321ZM7.82623 3.95902V2.34794H9.39148V0H4.69574V2.34794H6.26098V3.95902C2.73972 4.34881 0 7.3313 0 10.9564C0 14.8464 3.15346 18 7.04361 18C10.9336 18 14.0872 14.8465 14.0872 10.9564C14.0872 7.33112 11.3479 4.3487 7.82623 3.95902ZM7.04382 16.4348C4.01803 16.4348 1.56546 13.9823 1.56546 10.9564C1.56546 7.93075 4.01792 5.47804 7.04382 5.47804C10.0695 5.47804 12.5222 7.93049 12.5222 10.9564C12.5222 13.9823 10.0694 16.4348 7.04382 16.4348ZM7.82623 7.04328H6.26098V11.739H10.1741V10.1741H7.8263L7.82623 7.04328Z" fill="#6F767D"/>
</svg>
