<svg width="40" height="40" viewBox="0 0 40 40" fill="none" xmlns="http://www.w3.org/2000/svg">
<circle cx="20" cy="20" r="20" fill="#00ACEE"/>
<path d="M25.6563 16.1875C25.3073 16.6979 24.8854 17.1328 24.3906 17.4922C24.3958 17.5651 24.3984 17.6745 24.3984 17.8203C24.3984 18.4974 24.2995 19.1745 24.1016 19.8516C23.9036 20.5234 23.6016 21.1693 23.1953 21.7891C22.7943 22.4089 22.3151 22.9583 21.7578 23.4375C21.2005 23.9115 20.5286 24.2917 19.7422 24.5781C18.9557 24.8594 18.1146 25 17.2188 25C15.8073 25 14.5156 24.6224 13.3438 23.8672C13.526 23.888 13.7292 23.8984 13.9531 23.8984C15.125 23.8984 16.1693 23.5391 17.0859 22.8203C16.5391 22.8099 16.0495 22.6432 15.6172 22.3203C15.1849 21.9922 14.888 21.5755 14.7266 21.0703C14.8984 21.0964 15.0573 21.1094 15.2031 21.1094C15.4271 21.1094 15.6484 21.0807 15.8672 21.0234C15.2839 20.9036 14.7995 20.6146 14.4141 20.1562C14.0339 19.6927 13.8438 19.1562 13.8438 18.5469V18.5156C14.1979 18.7135 14.5781 18.8203 14.9844 18.8359C14.6406 18.6068 14.3672 18.3073 14.1641 17.9375C13.9609 17.5677 13.8594 17.1667 13.8594 16.7344C13.8594 16.276 13.974 15.8516 14.2031 15.4609C14.8333 16.237 15.599 16.8594 16.5 17.3281C17.4063 17.7917 18.375 18.0495 19.4063 18.1016C19.3646 17.9036 19.3438 17.7109 19.3438 17.5234C19.3438 16.8255 19.5885 16.2318 20.0781 15.7422C20.5729 15.2474 21.1693 15 21.8672 15C22.5964 15 23.2109 15.2656 23.7109 15.7969C24.2786 15.6875 24.8125 15.4844 25.3125 15.1875C25.1198 15.7865 24.75 16.25 24.2031 16.5781C24.6875 16.526 25.1719 16.3958 25.6563 16.1875Z" fill="white"/>
</svg>
