<svg width="30" height="23" viewBox="0 0 30 23" fill="none" xmlns="http://www.w3.org/2000/svg">
<path fill-rule="evenodd" clip-rule="evenodd" d="M0.599771 0.959961H5.07714V4.07634H0.599771V0.959961Z" fill="#215DA8"/>
<path fill-rule="evenodd" clip-rule="evenodd" d="M6.51741 0.96521V22.5652H23.5724V0.96521H6.51741ZM10.6463 5.78008H10.646C10.7932 5.77431 10.9383 5.81373 11.0624 5.89258L15.3936 8.59258L19.7136 11.2926C19.9223 11.4244 20.0488 11.6537 20.0488 11.9C20.0488 12.1464 19.9223 12.3756 19.7136 12.5075L15.3936 15.2075L11.0624 17.9075C10.8389 18.0466 10.5569 18.0531 10.3274 17.9241C10.0976 17.7952 9.95671 17.5516 9.95997 17.289V6.49991C9.95897 6.1157 10.2613 5.79855 10.646 5.77997L10.6463 5.78008Z" fill="#215DA8"/>
<path fill-rule="evenodd" clip-rule="evenodd" d="M25.0122 0.959961H29.3997V4.07634H25.0122V0.959961Z" fill="#215DA8"/>
<path fill-rule="evenodd" clip-rule="evenodd" d="M0.599771 5.51648H5.07714V8.72273H0.599771V5.51648Z" fill="#215DA8"/>
<path fill-rule="evenodd" clip-rule="evenodd" d="M25.0122 5.51648H29.3997V8.72273H25.0122V5.51648Z" fill="#215DA8"/>
<path fill-rule="evenodd" clip-rule="evenodd" d="M0.599771 10.1625H5.07714V13.3574H0.599771V10.1625Z" fill="#215DA8"/>
<path fill-rule="evenodd" clip-rule="evenodd" d="M25.0122 10.1625H29.3997V13.3574H25.0122V10.1625Z" fill="#215DA8"/>
<path fill-rule="evenodd" clip-rule="evenodd" d="M0.599771 14.7975H5.07714V17.9924H0.599771V14.7975Z" fill="#215DA8"/>
<path fill-rule="evenodd" clip-rule="evenodd" d="M25.0122 14.7975H29.3997V17.9924H25.0122V14.7975Z" fill="#215DA8"/>
<path fill-rule="evenodd" clip-rule="evenodd" d="M0.599771 19.4325H5.07714V22.5599H0.599771V19.4325Z" fill="#215DA8"/>
<path fill-rule="evenodd" clip-rule="evenodd" d="M25.0122 19.4325H29.3997V22.5599H25.0122V19.4325Z" fill="#215DA8"/>
</svg>
